# xmcd CD database file
#
# Track frame offsets:
#	150
#	21738
#	47083
#	68395
#	104771
#	130664
#	150928
#	180085
#	192679
#	226178
#	252779
#	267686
#	283807
#
# Disc length: 4099 seconds
#
# Revision: 0
# Processed by: cddbd v1.5.1PL0 Copyright (c) Steve Scherf et al.
# Submitted via: CDex 1.51
#
DISCID=b510010d
DTITLE=Trio Lapointe-Mailloux-Gagné - Trio Lapointe-Mailloux-Gagné
DYEAR=2005
DGENRE=Jazz
TTITLE0=Mémoire virtuelle
TTITLE1=Untitled song
TTITLE2=Polythergnas
TTITLE3=Gaia
TTITLE4=Baudroies
TTITLE5=Densité 23,7
TTITLE6=Délires antartiques
TTITLE7=Stock
TTITLE8=Vol
TTITLE9=Compo No. 68
TTITLE10=Petit vol plané en voiture
TTITLE11=Gigantocypris
TTITLE12=Untitled song 2
EXTD=YEAR: 2005
EXTT0=
EXTT1=
EXTT2=
EXTT3=
EXTT4=
EXTT5=
EXTT6=
EXTT7=
EXTT8=
EXTT9=
EXTT10=
EXTT11=
EXTT12=
PLAYORDER=
